<svg width="95" height="32" xmlns="http://www.w3.org/2000/svg">
  <g fill-rule="nonzero" fill="none">
    <path d="M8.56 20.893c2.452 0 3.639-2.494 3.639-4.757 0-2.263-1.15-4.817-3.64-4.817-2.596 0-3.742 2.554-3.742 4.817 0 2.263 1.182 4.757 3.742 4.757zm8.362 1.05c0 1.207 0 3.084-2.264 3.084-1.383 0-1.935-.76-2.267-2.004-1.209 1.442-2.687 2.195-4.496 2.195-4.422 0-7.8-3.775-7.8-9.082 0-5.184 3.477-9.152 7.8-9.152 1.74 0 3.446.685 4.496 2.16.131-1.147 1.121-1.963 2.267-1.963 2.264 0 2.264 1.871 2.264 3.089v11.674zM26.683 20.89c2.453 0 3.667-2.56 3.667-4.754 0-2.228-1.215-4.819-3.667-4.819-2.534 0-3.709 2.357-3.709 4.654 0 2.298 1.11 4.92 3.709 4.92zM18.25 9.808c0-1.572.978-2.626 2.359-2.626 1.305 0 2.066.727 2.364 1.964.882-1.44 2.72-2.161 4.496-2.161 5.072 0 7.6 4.755 7.6 9.345 0 4.464-3.008 8.89-7.766 8.89-1.486 0-3.084-.56-4.329-1.641v5.771c0 1.57-.984 2.62-2.364 2.62s-2.36-1.05-2.36-2.62V9.807zM36.187 9.807c0-1.572.982-2.626 2.361-2.626 1.377 0 2.361 1.054 2.361 2.626v12.587c0 1.58-.984 2.633-2.36 2.633-1.38 0-2.362-1.053-2.362-2.633V9.807zm5.021-7.117c0 1.48-1.184 2.72-2.66 2.72-1.413 0-2.658-1.277-2.658-2.72 0-1.345 1.245-2.595 2.657-2.595 1.41 0 2.661 1.22 2.661 2.595z" fill="#fc4c02"/>
    <path d="M50.42 11.319c-2.465 0-3.674 2.554-3.674 4.745 0 2.527 1.21 4.829 3.674 4.829 2.524 0 3.704-2.363 3.704-4.659 0-2.295-1.114-4.915-3.704-4.915zm8.426 12.133c0 5.673-3.708 8.517-9.077 8.517-1.94 0-7.45-.948-7.45-3.534 0-.894.982-2.075 1.902-2.075 1.507 0 3.177 1.484 5.906 1.484 2.29 0 3.998-1.342 3.998-3.742v-1.11h-.062c-.995 1.445-2.593 2.225-4.764 2.225-4.945 0-7.276-4.362-7.276-9.055 0-4.753 3.019-9.18 7.775-9.18 1.607 0 3.442.723 4.326 2.162.297-1.238 1.048-1.965 2.363-1.965 1.38 0 2.359 1.054 2.359 2.629v13.644zM71.93 14.534c-.26-2.071-1.57-3.61-3.767-3.61-2.099 0-3.517 1.603-3.745 3.61h7.513zm-7.408 3.147c.326 2.322 2.265 3.407 4.456 3.407 2.43 0 4.101-1.903 5.347-1.903 1.019 0 1.938 1.015 1.938 2.035 0 2.029-4.2 3.997-7.71 3.997-5.314 0-8.854-3.869-8.854-9.084 0-4.782 3.475-9.15 8.465-9.15 5.112 0 8.491 4.658 8.491 8.592 0 1.414-.624 2.104-2.07 2.104H64.523v.002zM89.649 14.592c-.257-2.068-1.574-3.61-3.77-3.61-2.1 0-3.513 1.606-3.737 3.61h7.507zm-7.407 3.148c.33 2.335 2.259 3.41 4.46 3.41 2.422 0 4.096-1.905 5.34-1.905 1.02 0 1.938 1.015 1.938 2.031 0 2.033-4.2 4.004-7.703 4.004-5.317 0-8.859-3.873-8.859-9.085 0-4.793 3.478-9.15 8.461-9.15 5.117 0 8.502 4.655 8.502 8.59 0 1.416-.624 2.103-2.079 2.103h-10.06v.002z" fill="#4a494a"/>
  </g>
</svg>
