<svg height="32" width="194" xmlns="http://www.w3.org/2000/svg"><linearGradient id="a" x1="50%" x2="50%" y1="0%" y2="100%"><stop offset="0" stop-color="#2196f3"/><stop offset="1" stop-color="#00ff76"/></linearGradient><g fill="none" fill-rule="evenodd"><path d="M2.5 7A2.5 2.5 0 0 1 5 9.5v13a2.5 2.5 0 1 1-5 0v-13A2.5 2.5 0 0 1 2.5 7zm18 0A2.5 2.5 0 0 1 23 9.5v13a2.5 2.5 0 1 1-5 0v-13A2.5 2.5 0 0 1 20.5 7zm18 0A2.5 2.5 0 0 1 41 9.5v13a2.5 2.5 0 1 1-5 0v-13A2.5 2.5 0 0 1 38.5 7zm-27-7A2.5 2.5 0 0 1 14 2.5v27a2.5 2.5 0 1 1-5 0v-27A2.5 2.5 0 0 1 11.5 0zm18 0A2.5 2.5 0 0 1 32 2.5v27a2.5 2.5 0 1 1-5 0v-27A2.5 2.5 0 0 1 29.5 0z" fill="url(#a)"/><path d="M61.357 17.36l-1.144-3.263-1.144 3.263zm.676 1.937h-3.64L57.808 21h-2.717l3.731-9.802h2.782L65.335 21h-2.717zm12.245-4.823c-.59-.72-1.317-1.079-2.184-1.079-.381 0-.734.07-1.06.208s-.604.327-.838.566-.418.522-.552.851-.202.685-.202 1.066c0 .39.067.75.202 1.079s.32.615.559.858.517.433.838.572.667.208 1.04.208c.815 0 1.547-.347 2.197-1.04v3.016l-.26.091c-.39.139-.754.24-1.092.305s-.672.098-1.001.098c-.676 0-1.324-.128-1.943-.384s-1.166-.615-1.638-1.079-.852-1.013-1.138-1.65-.429-1.333-.429-2.087.14-1.445.422-2.074.66-1.17 1.132-1.625 1.02-.81 1.644-1.066 1.278-.383 1.963-.383c.39 0 .773.041 1.15.123s.774.21 1.19.384zm2.3 6.526l1.664-9.802h2.522l1.963 5.226 1.95-5.226h2.522L88.863 21h-2.535l-.845-5.642L83.169 21h-1.014l-2.197-5.642L79.113 21zm20.604-7.644h-3.029v1.638h2.86v2.158h-2.86v1.69h3.029V21h-5.577v-9.802h5.577zm8.66 7.644v-9.8h2.057c.986 0 1.765.097 2.336.291.614.19 1.17.514 1.67.971 1.01.923 1.516 2.135 1.516 3.638 0 1.506-.526 2.725-1.58 3.656-.53.465-1.083.79-1.663.971-.542.182-1.31.273-2.304.273zm1.48-1.39h.666c.664 0 1.216-.07 1.657-.21.44-.148.837-.383 1.193-.704.728-.665 1.092-1.53 1.092-2.596 0-1.075-.36-1.947-1.08-2.616-.647-.596-1.601-.895-2.862-.895h-.667zm14.497-7.02h-3.929v2.354h3.815v1.39h-3.815v3.276h3.93V21h-5.409v-9.8h5.408zm3.568-1.39l2.71 6.791 2.749-6.792h1.619l-4.4 10.537-4.297-10.537zm14.835 1.39h-3.93v2.354h3.815v1.39h-3.815v3.276h3.93V21h-5.409v-9.8h5.409zm4.551-1.39v8.41h2.882V21h-4.361v-9.8zm4.526 4.855c0-1.38.506-2.564 1.517-3.555 1.007-.99 2.217-1.485 3.63-1.485 1.397 0 2.595.5 3.594 1.498 1.003.999 1.504 2.199 1.504 3.6 0 1.408-.504 2.604-1.51 3.586-1.012.986-2.233 1.479-3.663 1.479-1.266 0-2.402-.438-3.409-1.314-1.109-.97-1.663-2.239-1.663-3.809zm1.492.02c0 1.083.364 1.973 1.091 2.672.724.698 1.56 1.047 2.508 1.047 1.028 0 1.896-.356 2.602-1.066.707-.72 1.06-1.596 1.06-2.628 0-1.046-.349-1.922-1.047-2.628-.694-.711-1.553-1.067-2.577-1.067-1.02 0-1.881.356-2.584 1.067-.702.702-1.053 1.57-1.053 2.602zm13.222.945V21h-1.48v-9.8h1.677c.82 0 1.44.056 1.86.17.423.115.795.33 1.117.648.563.55.844 1.244.844 2.082 0 .897-.3 1.608-.901 2.133-.601.525-1.412.787-2.432.787zm0-1.371h.552c1.359 0 2.038-.523 2.038-1.568 0-1.011-.7-1.517-2.101-1.517h-.49zm12.08-3.06h-3.93v2.355h3.815v1.39h-3.815v3.276h3.93V21h-5.409v-9.8h5.409zm6.392 4.234L185.519 21h-1.809l-2.8-4.012h-.266V21h-1.479v-9.8h1.733c1.295 0 2.23.243 2.806.73.634.54.952 1.256.952 2.145 0 .694-.2 1.29-.597 1.79a2.66 2.66 0 0 1-1.574.958zm-1.841-1.123h.47c1.4 0 2.1-.536 2.1-1.606 0-1.003-.68-1.505-2.043-1.505h-.527zm13.02-3.04l-1.2.71c-.225-.39-.438-.643-.642-.762-.211-.135-.484-.203-.818-.203-.411 0-.752.117-1.022.35-.271.228-.407.516-.407.863 0 .478.356.863 1.067 1.155l.977.4c.796.321 1.378.714 1.746 1.177s.552 1.032.552 1.705c0 .901-.3 1.646-.901 2.234-.605.593-1.357.889-2.254.889-.85 0-1.553-.252-2.107-.756-.546-.503-.887-1.212-1.022-2.126l1.498-.33c.068.575.186.973.355 1.193.305.423.75.635 1.333.635.462 0 .845-.155 1.15-.463s.456-.7.456-1.175c0-.19-.026-.365-.079-.523a1.329 1.329 0 0 0-.248-.438 1.979 1.979 0 0 0-.434-.375 4.189 4.189 0 0 0-.635-.333l-.946-.394c-1.341-.567-2.012-1.396-2.012-2.488 0-.736.281-1.352.844-1.847.563-.5 1.263-.75 2.101-.75 1.13 0 2.012.55 2.647 1.651z" fill="#fff" fill-rule="nonzero"/></g></svg>
